<svg xmlns="http://www.w3.org/2000/svg" width="347" height="104" fill="none" aria-labelledby="refresh-badge-title"><mask id="b" width="308" height="192" x="20" y="-18" maskUnits="userSpaceOnUse"><ellipse cx="174" cy="78" fill="url(#a)" rx="154" ry="96"/></mask><g mask="url(#b)"><path stroke="#000" stroke-width="1.5" d="m-329 42.33.86 4.931c.506 2.9 4.617 3.039 5.318.18.701-2.969 4.963-2.861 5.515.14l.601 3.275c.041.22.106.435.194.64l2.271 5.292a2.327 2.327 0 0 0 4.293-.04l2.57-6.3 3.025-10.538c.042-.147.096-.29.16-.43l1.977-4.28a2.308 2.308 0 0 1 4.343.447l2.631 11.37a3 3 0 0 0 .95 1.583l2.067 1.806c.193.168.364.36.508.572l2.473 3.635c.262.385.61.704 1.017.931l1.468.82a1.939 1.939 0 0 0 1.975-.05 1.94 1.94 0 0 1 2.878 1.052l2.327 7.265 2.761 6.39c.214.496.559.926.998 1.243l2.238 1.614c.12.087.246.164.378.232l1.82.941a2.997 2.997 0 0 1 1.461 1.695l.147.432c.892 2.61 4.538 2.734 5.606.19l.035-.084 3.089-7.933 1.229-4.708c.473-1.814 3.064-1.77 3.475.06.402 1.787 2.913 1.885 3.453.134l.922-2.986a2.37 2.37 0 0 1 .652-1.04l.605-.563a1.83 1.83 0 0 1 2.967.71c.628 1.717 3.106 1.556 3.507-.227l.312-1.388c.412-1.834 2.962-1.996 3.603-.229a1.882 1.882 0 0 0 2.946.826l1.039-.834 2.505-2.605c.382-.397.647-.892.766-1.43l2.795-12.622c.074-.334.207-.653.392-.94l.558-.866c.983-1.524 3.256-1.379 4.036.259l.503 1.057a1.421 1.421 0 0 0 2.211.465 1.421 1.421 0 0 1 2.293.683l2.369 8.2c.07.24.169.472.297.688l2.539 4.316c.235.4.56.74.949.993l1.759 1.145a3 3 0 0 1 1.1 1.282l2.727 6.057 2.953 5.097c.09.156.167.321.228.492l2.874 8.023c.082.228.19.444.324.646l2.227 3.36a2.998 2.998 0 0 0 1.827 1.267l.315.072a2.805 2.805 0 0 1 2.066 1.955c.778 2.683 4.57 2.709 5.383.037l.336-1.105.109-.256c1.048-2.475 4.596-2.354 5.474.187l.099.287a2.446 2.446 0 0 0 4.407.464l1.643-2.73a3 3 0 0 1 1.789-1.35l1.923-.518 2.648-.809c.292-.089.596-.133.902-.13l.976.008a3.002 3.002 0 0 0 2.547-1.375l.651-1.012a2.774 2.774 0 0 1 3.895-.79 2.773 2.773 0 0 0 1.628.482l.445-.01a3.002 3.002 0 0 0 2.577-1.588l1.229-2.305a3 3 0 0 1 3.198-1.537l.509.095c.276.051.544.142.796.268l2.71 1.361 2.351 1.372a3.002 3.002 0 0 0 1.59.408l.903-.024a2.998 2.998 0 0 1 2.252.933l1.462 1.538a3 3 0 0 0 1.723.899l1.178.179a2.998 2.998 0 0 1 1.566.746l2.419 2.199 2.761 2.013c.217.158.412.345.58.555l2.571 3.228c.176.22.32.465.427.726l2.552 6.192c.244.59.669 1.087 1.215 1.42l1.418.862c.54.329.962.82 1.207 1.403l.16.381c.995 2.377 4.326 2.475 5.46.161l.072-.147c.073-.148.133-.302.18-.46l1.101-3.673c.621-2.07 3.515-2.173 4.28-.15a2.261 2.261 0 0 0 2.706 1.381l1.109-.3 3.089-1.228 3.088-1.542 3.09-2.066 2.077-1.018a3 3 0 0 1 2.099-.204l1.265.34c.483.13.99.137 1.477.02l1.337-.32a3 3 0 0 0 1.655-1.056l1.555-1.968a3 3 0 0 1 2.322-1.138l.549-.006a3 3 0 0 0 1.942-.74l2.04-1.78c.142-.125.296-.235.46-.33l.885-.519a3 3 0 0 1 3.593.427l.95.912a3 3 0 0 0 1.17.697l2.213.702c.14.044.275.099.407.163l1.674.816a3 3 0 0 0 2.467.072l.112-.046a2.838 2.838 0 0 1 3.069.585l.602.585a1.86 1.86 0 0 0 2.418.15 1.86 1.86 0 0 1 2.8.678l1.776 3.703a3 3 0 0 0 .944 1.132l.924.67a3 3 0 0 0 3.221.19l.865-.482a2.999 2.999 0 0 1 1.18-.366l.814-.077a3 3 0 0 0 2.395-1.63l2.12-4.182a3 3 0 0 0 .292-.915l1.464-9.833c.273-1.841 2.923-1.855 3.216-.017.286 1.792 2.847 1.842 3.203.063l1.138-5.685a2.67 2.67 0 0 1 .833-1.462l1.787-1.606a3 3 0 0 0 .88-1.41l2.77-9.75c.055-.19.127-.375.218-.55l.712-1.388c1.025-1.995 3.795-2.202 5.104-.382l.225.313.645.825a3 3 0 0 0 4.787-.077l.746-1.022 2.673-3.139a3 3 0 0 0 .595-1.104l1.081-3.704c.531-1.82 3.11-1.815 3.634.006l.146.504c.416 1.445 2.375 1.655 3.089.332a1.678 1.678 0 0 1 2.73-.319l1.496 1.681 3.089 4.054 1.952 3.431a2.5 2.5 0 0 0 3.224 1.033 2.5 2.5 0 0 1 2.019-.035l1.224.514a3 3 0 0 1 1.35 1.126l1.265 1.94a3 3 0 0 0 3.58 1.165l.83-.316.897-.29a3 3 0 0 1 3.44 1.227l1.47 2.274c.244.378.4.805.456 1.25l.93 7.333c.328 2.577 4.05 2.608 4.42.037l.086-.597c.247-1.717 2.43-2.3 3.5-.937.162.205.28.44.35.691l2.298 8.29a2.099 2.099 0 0 0 4.032.043l2.757-9.189c.05-.163.113-.323.189-.476l2.84-5.695c.089-.18.196-.35.32-.508l1.767-2.262a3 3 0 0 1 2.946-1.096l.603.119a3 3 0 0 1 1.226.549l.927.7a3 3 0 0 0 3.346.181l.77-.46a3 3 0 0 0 .96-.915l2.713-4.08 1.957-3.631a3 3 0 0 1 3.433-1.47l.231.062c.368.101.751.13 1.13.088l1.535-.174a3 3 0 0 1 1.836.382l1.86 1.073a3 3 0 0 1 .67.527l2.792 2.923 1.971 1.86c.697.657 1.68.916 2.61.688a2.824 2.824 0 0 1 2.725.804l1.336 1.415a3 3 0 0 1 .777 1.557l1.548 9.11c.345 2.025 3.187 2.203 3.78.235a1.945 1.945 0 0 1 2.806-1.14l.196.11c.501.276.87.744 1.021 1.296l2.312 8.413a1.999 1.999 0 0 0 3.88-.105l.566-2.606c.596-2.74 4.457-2.87 5.233-.175.084.292.217.567.392.815l1.378 1.942a2.826 2.826 0 0 0 4.92-.557l2.703-6.548 3.089-7.053 2.823-5.017c.176-.313.407-.592.681-.824l2.487-2.095c.124-.105.24-.22.346-.343l1.809-2.113a2.697 2.697 0 0 1 2.78-.843c.89.25 1.846.028 2.534-.59l1.629-1.464c.235-.21.436-.458.594-.732l2.716-4.71c.089-.154.192-.3.307-.436l2.916-3.453" opacity=".2"/></g><path fill="#fff" stroke="url(#c)" d="M174 96.5c24.577 0 44.5-19.923 44.5-44.5S198.577 7.5 174 7.5 129.5 27.423 129.5 52s19.923 44.5 44.5 44.5Z"/><path stroke="#000" stroke-opacity=".1" stroke-width="2" d="M174 86c18.778 0 34-15.222 34-34s-15.222-34-34-34-34 15.222-34 34 15.222 34 34 34Z"/><path stroke="url(#d)" stroke-linecap="round" stroke-linejoin="round" stroke-width="2" d="M174 18c18.778 0 34 15.222 34 34s-15.222 34-34 34-34-15.222-34-34c0-11.426 5.636-21.536 14.28-27.7"/><rect width="42" height="22" x="182.445" y="7.333" fill="#000" rx="6.654"/><rect width="42" height="22" x="182.445" y="7.333" fill="url(#e)" fill-opacity=".8" rx="6.654"/><rect width="42" height="22" x="182.445" y="7.333" fill="#1E90FF" rx="6.654"/><path fill="#fff" d="M190.917 20.642v-1.825h-1.8V17.45h1.8v-1.824h1.416v1.824h1.8v1.367h-1.8v1.825h-1.416Zm4.813 1.692v-1.008c0-.585.096-1.069.288-1.453.192-.392.468-.712.828-.96a4.755 4.755 0 0 1 1.344-.623l.804-.252c.296-.096.544-.212.744-.349.2-.143.352-.316.456-.515.112-.2.168-.428.168-.684v-.048c0-.4-.136-.716-.408-.949-.272-.24-.644-.36-1.116-.36-.464 0-.84.129-1.128.385-.28.247-.42.607-.42 1.08v.216h-1.536v-.192c0-.608.136-1.124.408-1.549.272-.424.64-.748 1.104-.972a3.62 3.62 0 0 1 1.572-.336c.576 0 1.096.112 1.56.336a2.58 2.58 0 0 1 1.092.924c.272.393.408.857.408 1.393v.12c0 .535-.112.991-.336 1.367a2.686 2.686 0 0 1-.888.912 5.728 5.728 0 0 1-1.284.576l-.768.24c-.344.105-.612.22-.804.349-.192.12-.328.256-.408.408-.072.143-.108.32-.108.527v.048h4.524v1.369h-6.096Zm10.389.168c-.992 0-1.788-.272-2.388-.816-.6-.552-.9-1.384-.9-2.497v-2.111c0-1.08.3-1.9.9-2.46.6-.569 1.396-.853 2.388-.853 1 0 1.796.284 2.388.852.6.56.9 1.38.9 2.46v2.112c0 1.113-.3 1.945-.9 2.497-.592.544-1.388.816-2.388.816Zm0-1.368c.6 0 1.04-.165 1.32-.492.288-.328.432-.796.432-1.404v-2.232c0-.616-.16-1.08-.48-1.393-.312-.32-.736-.48-1.272-.48-.552 0-.984.165-1.296.493-.304.328-.456.787-.456 1.38v2.232c0 .631.144 1.108.432 1.428.296.311.736.468 1.32.468Zm5.549 1.355-.912-.732 6.456-7.98.912.732-6.456 7.98Zm5.064-.036c-.608 0-1.084-.16-1.428-.48-.344-.328-.516-.771-.516-1.331v-.084c0-.569.172-1.012.516-1.332.344-.328.82-.492 1.428-.492.592 0 1.064.163 1.416.491.352.32.528.764.528 1.332v.085c0 .56-.172 1.003-.516 1.332-.344.32-.82.48-1.428.48Zm0-.983c.232 0 .412-.072.54-.216a.788.788 0 0 0 .204-.565v-.192a.788.788 0 0 0-.204-.564c-.128-.143-.308-.215-.54-.215-.232 0-.416.072-.552.215-.128.145-.192.332-.192.564v.192c0 .233.064.42.192.564.136.145.32.216.552.216Zm-4.584-3.936c-.608 0-1.084-.16-1.428-.48-.344-.328-.516-.772-.516-1.332v-.085c0-.568.172-1.011.516-1.332.344-.328.82-.492 1.428-.492.592 0 1.064.164 1.416.492.352.32.528.764.528 1.332v.085c0 .56-.172 1.004-.516 1.332-.344.32-.82.48-1.428.48Zm0-.985c.232 0 .412-.072.54-.215a.788.788 0 0 0 .204-.564v-.192a.788.788 0 0 0-.204-.564c-.128-.144-.308-.216-.54-.216-.232 0-.416.072-.552.216-.128.144-.192.332-.192.564v.192c0 .232.064.42.192.564.136.143.32.215.552.215Z"/><rect width="42" height="22" x="182.445" y="7.333" stroke="#fff" stroke-width="2" rx="6.654"/><path stroke="#1E90FF" stroke-linecap="round" stroke-linejoin="round" stroke-width="2" d="m146.5 58.716.632-1.423a2.333 2.333 0 0 1 3.263-1.095v0c.55.304.954.818 1.12 1.423l2.289 8.33a1.999 1.999 0 0 0 2.493 1.387v0a1.999 1.999 0 0 0 1.387-1.493l.566-2.606c.596-2.74 4.457-2.87 5.233-.175v0c.084.292.217.567.392.815l1.378 1.942a2.828 2.828 0 0 0 3.646.854v0a2.826 2.826 0 0 0 1.274-1.41l2.703-6.549 3.089-7.053 2.823-5.017c.176-.313.407-.592.681-.824l2.487-2.095c.124-.105.24-.22.346-.343l1.809-2.113a2.697 2.697 0 0 1 2.78-.843v0c.89.25 1.846.028 2.534-.59l1.629-1.464c.235-.21.436-.458.594-.732l2.85-4.941"/><defs><linearGradient id="c" x1="125.243" x2="262.204" y1=".667" y2="58.617" gradientUnits="userSpaceOnUse"><stop stop-opacity=".2"/><stop offset=".125" stop-opacity=".4"/><stop offset=".348"/><stop offset=".568" stop-opacity=".4"/><stop offset="1" stop-opacity="0"/></linearGradient><linearGradient id="d" x1="136.324" x2="242.158" y1="12.333" y2="57.114" gradientUnits="userSpaceOnUse"><stop stop-opacity=".2"/><stop offset=".125" stop-opacity=".4"/><stop offset=".348"/><stop offset=".568" stop-opacity=".4"/><stop offset="1" stop-opacity="0"/></linearGradient><linearGradient id="e" x1="181.283" x2="224.054" y1="6.667" y2="42.861" gradientUnits="userSpaceOnUse"><stop stop-color="#fff" stop-opacity=".63"/><stop offset=".125" stop-color="#fff"/><stop offset=".348" stop-color="#fff"/><stop offset=".568" stop-color="#fff" stop-opacity=".72"/><stop offset="1" stop-color="#fff" stop-opacity=".43"/></linearGradient><radialGradient id="a" cx="0" cy="0" r="1" gradientTransform="matrix(0 96 -154 0 174 78)" gradientUnits="userSpaceOnUse"><stop offset=".464" stop-color="#D9D9D9"/><stop offset="1" stop-color="#D9D9D9" stop-opacity="0"/></radialGradient></defs></svg>